<?xml version="1.0" standalone="no"?>
<!DOCTYPE svg PUBLIC "-//W3C//DTD SVG 20010904//EN"
 "http://www.w3.org/TR/2001/REC-SVG-20010904/DTD/svg10.dtd">
<svg version="1.0" xmlns="http://www.w3.org/2000/svg"
 width="700.000000pt" height="700.000000pt" viewBox="0 0 700.000000 700.000000"
 preserveAspectRatio="xMidYMid meet">
<metadata>
Created by potrace 1.11, written by Peter Selinger 2001-2013
</metadata>
<g transform="translate(0.000000,700.000000) scale(0.100000,-0.100000)"
fill="#000000" stroke="none">
<path d="M1882 6065 c-167 -37 -289 -137 -384 -320 l-42 -80 -28 115 c-15 63
-30 124 -32 135 -2 11 -10 41 -16 68 l-12 47 -294 0 -294 0 2 -162 3 -163 105
0 106 1 -1 -487 c0 -268 -3 -490 -7 -494 -3 -4 -52 -7 -107 -7 l-101 0 0 -164
0 -164 514 0 514 0 1 164 0 163 -125 1 c-68 0 -141 1 -162 1 l-38 1 1 243 c2
201 5 250 19 287 17 44 93 190 105 200 3 3 23 27 45 53 46 57 126 113 190 132
l46 14 0 -152 0 -152 149 0 c82 0 151 2 154 5 3 3 8 32 11 65 4 33 9 71 11 85
5 35 23 166 31 225 3 28 14 107 23 177 l17 127 -26 10 c-94 37 -272 49 -378
26z"/>
<path d="M3250 5015 c-172 -44 -277 -189 -265 -364 8 -112 97 -236 205 -283
105 -47 243 -31 336 38 173 128 192 367 40 518 -84 84 -207 120 -316 91z"/>
<path d="M3790 1895 l0 -1895 1605 0 1605 0 0 1895 0 1895 -1605 0 -1605 0 0
-1895z"/>
</g>
</svg>
